<?xml version="1.0" standalone="no"?>
<!DOCTYPE svg PUBLIC "-//W3C//DTD SVG 20010904//EN"
 "http://www.w3.org/TR/2001/REC-SVG-20010904/DTD/svg10.dtd">
<svg version="1.0" xmlns="http://www.w3.org/2000/svg"
 width="512.000000pt" height="512.000000pt" viewBox="0 0 512.000000 512.000000"
 preserveAspectRatio="xMidYMid meet">
<metadata>
Created by potrace 1.14, written by Peter Selinger 2001-2017
</metadata>
<g transform="translate(0.000000,512.000000) scale(0.100000,-0.100000)"
fill="#000000" stroke="none">
<path d="M78 5089 c-23 -12 -46 -35 -58 -59 -20 -38 -20 -57 -20 -782 0 -796
0 -790 51 -894 36 -73 110 -147 184 -185 l65 -34 0 -1357 c0 -974 3 -1372 11
-1410 50 -232 280 -389 510 -350 142 24 264 114 327 238 43 85 52 145 52 334
0 94 1 170 3 170 1 0 53 -33 115 -74 592 -391 1322 -481 1997 -246 123 43 350
155 465 230 123 81 256 187 358 289 l82 81 0 -310 c0 -192 4 -329 11 -362 50
-232 280 -389 510 -350 183 31 330 172 368 350 8 38 11 683 11 2338 0 2270 0
2285 -20 2324 -14 27 -34 47 -62 61 -38 19 -53 21 -133 16 -428 -29 -790 -352
-869 -775 l-11 -63 -65 52 c-170 137 -448 291 -656 362 -556 192 -1172 162
-1689 -82 -59 -28 -110 -51 -111 -51 -2 0 -4 99 -4 220 0 202 -2 224 -20 260
-23 45 -80 80 -130 80 -50 0 -107 -35 -130 -80 -19 -38 -20 -58 -20 -530 l0
-490 -150 0 -150 0 0 490 c0 472 -1 492 -20 530 -23 45 -80 80 -130 80 -50 0
-107 -35 -130 -80 -19 -38 -20 -58 -20 -530 l0 -490 -150 0 -150 0 0 490 c0
472 -1 492 -20 530 -37 73 -127 99 -202 59z m4742 -1739 l0 -1440 -250 0 -250
0 0 1158 c0 1292 -3 1231 71 1381 48 97 147 208 233 259 57 35 162 81 184 82
9 0 12 -295 12 -1440z m-2069 1150 c364 -37 711 -175 1004 -399 33 -25 106
-90 163 -145 l102 -99 0 -1064 c0 -1025 1 -1065 19 -1101 24 -47 84 -82 140
-82 41 0 41 0 41 -38 0 -30 -11 -55 -51 -112 -403 -586 -1100 -910 -1800 -840
-400 41 -787 207 -1081 464 l-88 77 0 987 0 987 53 25 c67 32 165 130 198 200
45 92 49 139 49 500 l0 339 72 42 c355 208 775 299 1179 259z m-1551 -880 c0
-112 -20 -159 -80 -190 -37 -19 -58 -20 -371 -20 -325 0 -332 0 -371 22 -60
34 -78 78 -78 188 l0 90 450 0 450 0 0 -90z m-300 -1850 c0 -1324 0 -1341 -20
-1380 -23 -45 -80 -80 -130 -80 -50 0 -107 35 -130 80 -20 39 -20 56 -20 1380
l0 1340 150 0 150 0 0 -1340z m3920 -750 c0 -572 -1 -592 -20 -630 -23 -45
-80 -80 -130 -80 -50 0 -107 35 -130 80 -19 38 -20 58 -20 630 l0 590 150 0
150 0 0 -590z"/>
<path d="M2022 3379 c-240 -40 -447 -238 -497 -474 -29 -139 -12 -275 51 -405
34 -71 62 -101 473 -513 348 -349 444 -440 474 -449 78 -23 77 -24 548 449
411 412 439 442 473 513 163 336 3 730 -347 851 -198 68 -405 35 -574 -93
l-63 -47 -62 47 c-140 105 -310 148 -476 121z m233 -323 c29 -13 89 -60 146
-113 143 -135 177 -135 322 3 134 128 223 161 346 130 154 -39 252 -175 238
-328 -10 -112 -27 -134 -402 -508 l-345 -345 -345 345 c-375 374 -392 396
-402 508 -22 237 223 409 442 308z"/>
</g>
</svg>
